<svg width="69" height="57" viewBox="0 0 69 57" fill="none" xmlns="http://www.w3.org/2000/svg">
<path d="M1.25669 48.2315C1.25669 48.8425 0.761326 49.3379 0.150315 49.3379C-0.460695 49.3379 -0.956055 48.8425 -0.956055 48.2315C-0.956055 47.6205 -0.460695 47.1251 0.150315 47.1251C0.761326 47.1251 1.25669 47.6205 1.25669 48.2315ZM40.0298 30.1017C38.4871 31.2606 36.6519 31.873 34.7224 31.873C34.1001 31.873 33.525 31.6665 33.0623 31.3183C32.5996 31.6665 32.0246 31.873 31.4023 31.873C29.3979 31.873 27.5059 31.2169 25.9309 29.9757C25.4509 29.5973 25.3684 28.9015 25.7467 28.4214C26.1249 27.9415 26.8207 27.8588 27.3008 28.2372C28.4817 29.1678 29.8998 29.6596 31.4023 29.6596C31.7074 29.6596 31.9556 29.4114 31.9556 29.1063V27.3061C30.0485 26.8134 28.6355 25.0783 28.6355 23.0194C28.6355 21.7989 29.6284 20.806 30.8489 20.806H35.2757C36.4962 20.806 37.4891 21.7989 37.4891 23.0194C37.4891 25.0783 36.0762 26.8134 34.169 27.3061V29.1063C34.169 29.4114 34.4172 29.6596 34.7224 29.6596C36.1686 29.6596 37.5442 29.2006 38.7004 28.3321C39.1891 27.9648 39.8829 28.0635 40.2499 28.5523C40.617 29.041 40.5185 29.7348 40.0298 30.1017V30.1017ZM33.0623 25.2328C34.2828 25.2328 35.2757 24.2399 35.2757 23.0194H30.8489C30.8489 24.2399 31.8418 25.2328 33.0623 25.2328ZM29.2433 16.8136L27.6067 19.6482C26.0258 22.2518 23.027 22.5838 20.9963 21.4194C18.9846 20.2659 18.2975 17.6829 19.457 15.6747L20.9829 13.0317C22.3474 10.6682 25.3807 9.85529 27.7445 11.22C29.6998 12.3489 30.3721 14.8581 29.2433 16.8136ZM25.6899 18.5415L26.368 17.3669H25.5084C24.0348 17.3669 24.0348 15.1535 25.5084 15.1535H27.5371C27.6994 14.379 27.3659 13.5417 26.6377 13.1368C25.2975 12.3915 23.6624 12.827 22.8996 14.1385L21.3737 16.7814C20.8245 17.7327 21.1549 18.9477 22.1029 19.5026C23.6161 20.3883 25.2065 19.4672 25.6899 18.5415V18.5415ZM45.1282 21.4194C42.9476 22.6588 40.0166 22.1555 38.5178 19.6482L36.8812 16.8136C35.7523 14.8581 36.4247 12.3489 38.38 11.22C40.7439 9.85529 43.7771 10.6682 45.1416 13.0317L46.6676 15.6747C47.827 17.6829 47.1443 20.2736 45.1282 21.4194ZM44.7507 16.7814L43.2248 14.1385C42.4704 12.8318 40.7935 12.3824 39.4867 13.1368C38.7651 13.5533 38.4249 14.379 38.5873 15.1535H40.616C42.0896 15.1535 42.0896 17.3669 40.616 17.3669H39.7564L40.4345 18.5415C40.9875 19.5423 42.5262 20.3455 44.0214 19.5026C44.9785 18.9632 45.3 17.7326 44.7507 16.7814ZM51.821 15.7317C53.8663 20.0136 53.6872 24.9307 51.2801 29.1C50.8048 29.923 50.2603 30.6848 49.6571 31.3814C51.5541 38.375 51.6881 45.7639 50.0393 52.7922C49.5659 54.8108 47.7923 56.2205 45.7262 56.2205H43.2949C39.6438 56.2205 36.0732 55.3897 32.8393 53.8251C32.0008 54.911 30.404 56.2205 28.0202 56.2205H7.22967C5.07702 56.2205 2.77442 55.3404 1.13727 53.4991C0.732109 53.0433 0.773721 52.3492 1.22249 51.9364C1.69981 51.4973 2.4102 51.6026 2.78515 52.0216C3.91609 53.2853 5.53973 54.0071 7.23188 54.0071H9.49243C7.52283 51.3832 6.76142 47.9596 7.60074 44.7162C9.04455 39.1371 13.6117 36.8598 16.9082 36.3865C15.3576 33.1758 14.1988 29.7752 13.4766 26.2614C7.10771 29.9337 2.80441 36.1236 1.58327 43.4524C1.49363 43.9892 0.992958 44.4609 0.309459 44.3632C-0.265141 44.281 -0.706493 43.7135 -0.60025 43.0893C1.2351 32.3068 8.41528 26.4556 13.0484 23.9619C12.6397 21.1912 13.0559 18.3435 14.3035 15.7317C12.2117 14.1404 10.948 11.6395 10.948 8.98011C10.948 4.30585 14.7507 0.502996 19.425 0.502996C21.3066 0.502996 23.1086 1.1212 24.5846 2.25712C27.1001 0.796162 30.0007 0 33.0623 0C36.124 0 39.0247 0.796051 41.54 2.25712C43.016 1.12131 44.818 0.503107 46.6995 0.503107C51.3738 0.503107 55.1765 4.30585 55.1765 8.98022C55.1765 11.6394 53.9128 14.1404 51.821 15.7317V15.7317ZM15.3857 13.7631L18.4667 8.42676C19.5656 6.52335 20.9797 4.89826 22.6228 3.59623C21.6628 3.02395 20.5639 2.7164 19.4252 2.7164C15.9714 2.7164 13.1616 5.52632 13.1616 8.98011C13.1615 10.8338 13.9932 12.5833 15.3857 13.7631ZM30.8569 52.7473C29.6811 52.0348 28.5616 51.2196 27.5137 50.3047C23.661 46.9404 20.454 42.9389 18.0129 38.5216C14.1145 38.6641 10.696 41.4112 9.74963 45.2464C8.96088 48.4425 10.0349 51.8382 12.4899 54.0071H28.0212C29.1237 54.0071 30.1426 53.541 30.8569 52.7473V52.7473ZM43.2949 54.0071C44.2275 54.0071 44.5726 53.0492 44.3065 52.4492C41.5875 46.3173 37.6473 40.8609 32.6599 36.2998H27.3149C23.652 36.2998 20.2595 34.9657 17.663 32.6054C20.0777 38.7274 23.9473 44.2519 28.9697 48.6376C32.935 52.1002 38.0224 54.0071 43.2949 54.0071V54.0071ZM47.8245 33.1515C45.3214 35.1704 42.1799 36.2998 38.8096 36.2998H35.8609C36.9841 37.4251 38.0495 38.596 39.0558 39.811C39.084 39.655 39.1133 39.4994 39.1445 39.3443C39.2654 38.7451 39.8493 38.3572 40.4481 38.4782C41.0473 38.599 41.4351 39.1826 41.3142 39.7817C41.1488 40.6022 41.0331 41.4349 40.9633 42.2635C43.0649 45.1454 44.8583 48.2471 46.3285 51.5489C46.6612 52.2962 46.7025 53.1217 46.4669 53.8802C47.163 53.6336 47.7063 53.0459 47.8844 52.2867C49.3563 46.0127 49.3307 39.4355 47.8245 33.1515ZM49.3633 15.8071L45.7411 9.53346C43.0947 4.94995 38.355 2.2134 33.0623 2.2134C27.7696 2.2134 23.0298 4.94995 20.3835 9.53357L16.7614 15.8072C14.5586 19.6226 14.5586 24.1782 16.7614 27.9935C18.9641 31.8086 22.9093 34.0864 27.3149 34.0864H38.8096C43.2152 34.0864 47.1605 31.8086 49.3631 27.9933C51.5659 24.1781 51.5659 19.6225 49.3633 15.8071V15.8071ZM52.9631 8.98022C52.9631 5.52643 50.1533 2.71651 46.6995 2.71651C45.561 2.71651 44.462 3.02406 43.5021 3.59623C45.1451 4.89826 46.559 6.52323 47.6579 8.42676L50.7389 13.7631C52.1313 12.5834 52.9631 10.8338 52.9631 8.98022V8.98022Z" fill="url(#paint0_linear)"/>
<g clip-path="url(#clip0)">
<path d="M59.6557 35.6347C59.8366 35.682 59.9931 35.5679 60.0035 35.3813C60.0035 35.3813 60.1323 33.0709 60.192 32.4334C60.2422 31.8967 60.5873 29.1765 60.5873 29.1765C60.6109 28.9911 60.4776 28.8508 60.2914 28.8647C60.2914 28.8647 59.6021 28.9163 59.2638 28.8846C58.9239 28.8527 58.2524 28.6732 58.2524 28.6732C58.0718 28.625 57.9148 28.7381 57.9035 28.9247C57.9035 28.9247 57.7394 31.6293 57.6899 32.1553C57.629 32.8035 57.3227 35.1297 57.3227 35.1297C57.2984 35.3151 57.4307 35.4542 57.617 35.439C57.617 35.439 58.2537 35.387 58.5752 35.4149C58.9328 35.446 59.6557 35.6347 59.6557 35.6347Z" fill="url(#paint1_linear)"/>
<path d="M58.9248 43.4238C59.1057 43.471 59.2622 43.357 59.2726 43.1704C59.2726 43.1704 59.4013 40.8599 59.461 40.2225C59.5113 39.6858 59.8564 36.9656 59.8564 36.9656C59.88 36.7801 59.7467 36.6398 59.5604 36.6538C59.5604 36.6538 58.8712 36.7054 58.5329 36.6737C58.193 36.6418 57.5214 36.4623 57.5214 36.4623C57.3409 36.4141 57.1838 36.5271 57.1725 36.7137C57.1725 36.7137 57.0084 39.4184 56.959 39.9444C56.8981 40.5926 56.5917 42.9189 56.5917 42.9189C56.5675 43.1043 56.6998 43.2432 56.886 43.2282C56.886 43.2282 57.5228 43.176 57.8442 43.2041C58.2018 43.2351 58.9248 43.4238 58.9248 43.4238Z" fill="url(#paint2_linear)"/>
<path d="M58.194 51.2148C58.3748 51.2619 58.5313 51.148 58.5417 50.9614C58.5417 50.9614 58.6705 48.6509 58.7301 48.0135C58.7804 47.4769 59.1255 44.7566 59.1255 44.7566C59.1491 44.5712 59.0158 44.4309 58.8294 44.4448C58.8294 44.4448 58.1403 44.4963 57.8019 44.4647C57.462 44.4328 56.7906 44.2533 56.7906 44.2533C56.61 44.205 56.4529 44.3182 56.4416 44.5048C56.4416 44.5048 56.2776 47.2094 56.2281 47.7354C56.1672 48.3835 55.8608 50.7098 55.8608 50.7098C55.8365 50.8953 55.9689 51.0343 56.1551 51.0191C56.1551 51.0191 56.7919 50.967 57.1134 50.995C57.4708 51.0261 58.194 51.2148 58.194 51.2148Z" fill="url(#paint3_linear)"/>
<path d="M63.1455 39.0059C62.0498 39.9987 60.6727 40.3768 60.5264 40.2489C60.3776 40.119 60.7797 38.8893 61.8755 37.8965C62.9713 36.9037 64.346 36.5236 64.4946 36.6535C64.6537 36.7926 64.2412 38.0131 63.1455 39.0059Z" fill="url(#paint4_linear)"/>
<path d="M63.3972 41.7653C62.2267 41.8286 61.2363 41.2717 61.2238 41.0895C61.211 40.9045 62.1187 40.2479 63.2893 40.1847C64.46 40.1214 65.4501 40.6754 65.4628 40.8604C65.4763 41.0585 64.5679 41.702 63.3972 41.7653Z" fill="url(#paint5_linear)"/>
<path d="M61.0888 43.3814C60.5696 42.5561 60.555 41.6852 60.6767 41.6245C60.8001 41.563 61.6253 42.0306 62.1445 42.8557C62.6637 43.6808 62.6803 44.5509 62.5566 44.6125C62.4242 44.6784 61.608 44.2065 61.0888 43.3814Z" fill="url(#paint6_linear)"/>
<path d="M50.4913 42.4424C50.6735 42.4008 50.7596 42.2274 50.6827 42.0571C50.6827 42.0571 49.838 40.1867 49.6206 39.6521C49.4375 39.202 48.5932 36.9149 48.5932 36.9149C48.5285 36.7396 48.3455 36.6766 48.1866 36.775C48.1866 36.775 47.6856 37.0853 47.4018 37.2009C47.1168 37.3168 46.5379 37.4455 46.5379 37.4455C46.3554 37.486 46.2684 37.6588 46.3444 37.8295C46.3444 37.8295 47.325 40.0297 47.5045 40.4709C47.7255 41.0144 48.4369 42.9704 48.4369 42.9704C48.5008 43.146 48.6826 43.2083 48.8408 43.1088C48.8408 43.1088 49.2999 42.8201 49.5685 42.7087C49.8673 42.5849 50.4913 42.4424 50.4913 42.4424Z" fill="url(#paint7_linear)"/>
<path d="M53.1481 48.9757C53.3303 48.9341 53.4164 48.7606 53.3394 48.5903C53.3394 48.5903 52.4948 46.7199 52.2774 46.1852C52.0943 45.7351 51.25 43.4481 51.25 43.4481C51.1853 43.2728 51.0023 43.2099 50.8434 43.3081C50.8434 43.3081 50.3424 43.6183 50.0585 43.7341C49.7735 43.8501 49.1946 43.9787 49.1946 43.9787C49.0122 44.0194 48.9251 44.1922 49.0012 44.3628C49.0012 44.3628 49.9818 46.5629 50.1612 47.0041C50.3823 47.5475 51.0937 49.5035 51.0937 49.5035C51.1576 49.6791 51.3393 49.7414 51.4975 49.6419C51.4975 49.6419 51.9567 49.3532 52.2253 49.2418C52.5241 49.1182 53.1481 48.9757 53.1481 48.9757Z" fill="url(#paint8_linear)"/>
<path d="M55.8052 55.5069C55.9875 55.4654 56.0735 55.292 55.9965 55.1216C55.9965 55.1216 55.1519 53.2511 54.9346 52.7165C54.7515 52.2664 53.9072 49.9794 53.9072 49.9794C53.8424 49.8041 53.6594 49.7411 53.5006 49.8394C53.5006 49.8394 52.9996 50.1497 52.7157 50.2654C52.4307 50.3814 51.8518 50.51 51.8518 50.51C51.6693 50.5505 51.5823 50.7234 51.6584 50.894C51.6584 50.894 52.639 53.0943 52.8184 53.5353C53.0395 54.0788 53.751 56.0348 53.751 56.0348C53.8148 56.2105 53.9965 56.2728 54.1547 56.1733C54.1547 56.1733 54.6138 55.8845 54.8824 55.7732C55.1812 55.6495 55.8052 55.5069 55.8052 55.5069Z" fill="url(#paint9_linear)"/>
<path d="M46.2393 45.6504C47.1591 45.0848 48.2277 45.0316 48.3245 45.1533C48.4227 45.2764 47.9985 46.1387 47.0787 46.7043C46.159 47.2698 45.0918 47.325 44.9936 47.2014C44.8883 47.0694 45.3194 46.2161 46.2393 45.6504Z" fill="url(#paint10_linear)"/>
<path d="M47.0053 43.1077C47.7753 43.618 48.0605 44.4267 47.9589 44.5451C47.8557 44.6654 46.8939 44.645 46.1239 44.1348C45.3537 43.6246 45.067 42.8177 45.1702 42.6975C45.2807 42.5687 46.2352 42.5975 47.0053 43.1077Z" fill="url(#paint11_linear)"/>
</g>
<defs>
<linearGradient id="paint0_linear" x1="-11.4371" y1="-2.95567e-07" x2="65.6315" y2="23.3583" gradientUnits="userSpaceOnUse">
<stop stop-color="#4BD8B5"/>
<stop offset="1" stop-color="#49D6DF"/>
</linearGradient>
<linearGradient id="paint1_linear" x1="56.7092" y1="28.6621" x2="61.5145" y2="29.3452" gradientUnits="userSpaceOnUse">
<stop stop-color="#4BD8B5"/>
<stop offset="1" stop-color="#49D6DF"/>
</linearGradient>
<linearGradient id="paint2_linear" x1="55.9783" y1="36.4512" x2="60.7835" y2="37.1343" gradientUnits="userSpaceOnUse">
<stop stop-color="#4BD8B5"/>
<stop offset="1" stop-color="#49D6DF"/>
</linearGradient>
<linearGradient id="paint3_linear" x1="55.2473" y1="44.2422" x2="60.0526" y2="44.9253" gradientUnits="userSpaceOnUse">
<stop stop-color="#4BD8B5"/>
<stop offset="1" stop-color="#49D6DF"/>
</linearGradient>
<linearGradient id="paint4_linear" x1="59.7439" y1="36.6289" x2="65.1744" y2="38.4524" gradientUnits="userSpaceOnUse">
<stop stop-color="#4BD8B5"/>
<stop offset="1" stop-color="#49D6DF"/>
</linearGradient>
<linearGradient id="paint5_linear" x1="60.4321" y1="40.1797" x2="64.273" y2="43.2872" gradientUnits="userSpaceOnUse">
<stop stop-color="#4BD8B5"/>
<stop offset="1" stop-color="#49D6DF"/>
</linearGradient>
<linearGradient id="paint6_linear" x1="60.2391" y1="41.6191" x2="63.1281" y2="42.2058" gradientUnits="userSpaceOnUse">
<stop stop-color="#4BD8B5"/>
<stop offset="1" stop-color="#49D6DF"/>
</linearGradient>
<linearGradient id="paint7_linear" x1="45.4965" y1="36.7285" x2="51.8115" y2="38.039" gradientUnits="userSpaceOnUse">
<stop stop-color="#4BD8B5"/>
<stop offset="1" stop-color="#49D6DF"/>
</linearGradient>
<linearGradient id="paint8_linear" x1="48.1532" y1="43.2617" x2="54.4683" y2="44.5722" gradientUnits="userSpaceOnUse">
<stop stop-color="#4BD8B5"/>
<stop offset="1" stop-color="#49D6DF"/>
</linearGradient>
<linearGradient id="paint9_linear" x1="50.8104" y1="49.793" x2="57.1254" y2="51.1034" gradientUnits="userSpaceOnUse">
<stop stop-color="#4BD8B5"/>
<stop offset="1" stop-color="#49D6DF"/>
</linearGradient>
<linearGradient id="paint10_linear" x1="44.3506" y1="45.0996" x2="48.4669" y2="47.0468" gradientUnits="userSpaceOnUse">
<stop stop-color="#4BD8B5"/>
<stop offset="1" stop-color="#49D6DF"/>
</linearGradient>
<linearGradient id="paint11_linear" x1="44.6217" y1="42.6328" x2="48.1871" y2="44.1844" gradientUnits="userSpaceOnUse">
<stop stop-color="#4BD8B5"/>
<stop offset="1" stop-color="#49D6DF"/>
</linearGradient>
<clipPath id="clip0">
<rect width="27.559" height="27.559" fill="white" transform="translate(41.4409 28.6621)"/>
</clipPath>
</defs>
</svg>
